<mxfile host="app.diagrams.net" modified="2023-10-22T12:33:18.209Z" agent="Mozilla/5.0 (Windows NT 10.0; Win64; x64; rv:109.0) Gecko/20100101 Firefox/118.0" etag="Tqmgve7k2BiVf6z2dHci" version="22.0.6" type="device">
  <diagram name="Strona-1" id="zBfZenht_mDRwVWQtyng">
    <mxGraphModel dx="2261" dy="782" grid="1" gridSize="10" guides="1" tooltips="1" connect="1" arrows="1" fold="1" page="1" pageScale="1" pageWidth="827" pageHeight="1169" math="0" shadow="0">
      <root>
        <mxCell id="0" />
        <mxCell id="1" parent="0" />
        <mxCell id="8O6h6LcJOBuH67-6-kBQ-1" value="Abstraction" style="swimlane;fontStyle=1;align=center;verticalAlign=top;childLayout=stackLayout;horizontal=1;startSize=26;horizontalStack=0;resizeParent=1;resizeParentMax=0;resizeLast=0;collapsible=1;marginBottom=0;" parent="1" vertex="1">
          <mxGeometry x="190" y="20" width="160" height="60" as="geometry" />
        </mxCell>
        <mxCell id="8O6h6LcJOBuH67-6-kBQ-3" value="" style="line;strokeWidth=1;fillColor=none;align=left;verticalAlign=middle;spacingTop=-1;spacingLeft=3;spacingRight=3;rotatable=0;labelPosition=right;points=[];portConstraint=eastwest;strokeColor=inherit;" parent="8O6h6LcJOBuH67-6-kBQ-1" vertex="1">
          <mxGeometry y="26" width="160" height="8" as="geometry" />
        </mxCell>
        <mxCell id="8O6h6LcJOBuH67-6-kBQ-4" value="+ abstract f()" style="text;strokeColor=none;fillColor=none;align=left;verticalAlign=top;spacingLeft=4;spacingRight=4;overflow=hidden;rotatable=0;points=[[0,0.5],[1,0.5]];portConstraint=eastwest;" parent="8O6h6LcJOBuH67-6-kBQ-1" vertex="1">
          <mxGeometry y="34" width="160" height="26" as="geometry" />
        </mxCell>
        <mxCell id="8O6h6LcJOBuH67-6-kBQ-5" value="AbstrType_1" style="swimlane;fontStyle=1;align=center;verticalAlign=top;childLayout=stackLayout;horizontal=1;startSize=26;horizontalStack=0;resizeParent=1;resizeParentMax=0;resizeLast=0;collapsible=1;marginBottom=0;" parent="1" vertex="1">
          <mxGeometry x="-20" y="110" width="160" height="60" as="geometry" />
        </mxCell>
        <mxCell id="8O6h6LcJOBuH67-6-kBQ-6" value="" style="line;strokeWidth=1;fillColor=none;align=left;verticalAlign=middle;spacingTop=-1;spacingLeft=3;spacingRight=3;rotatable=0;labelPosition=right;points=[];portConstraint=eastwest;strokeColor=inherit;" parent="8O6h6LcJOBuH67-6-kBQ-5" vertex="1">
          <mxGeometry y="26" width="160" height="8" as="geometry" />
        </mxCell>
        <mxCell id="8O6h6LcJOBuH67-6-kBQ-7" value="+ f()" style="text;strokeColor=none;fillColor=none;align=left;verticalAlign=top;spacingLeft=4;spacingRight=4;overflow=hidden;rotatable=0;points=[[0,0.5],[1,0.5]];portConstraint=eastwest;" parent="8O6h6LcJOBuH67-6-kBQ-5" vertex="1">
          <mxGeometry y="34" width="160" height="26" as="geometry" />
        </mxCell>
        <mxCell id="8O6h6LcJOBuH67-6-kBQ-8" value="AbstrType_n" style="swimlane;fontStyle=1;align=center;verticalAlign=top;childLayout=stackLayout;horizontal=1;startSize=26;horizontalStack=0;resizeParent=1;resizeParentMax=0;resizeLast=0;collapsible=1;marginBottom=0;" parent="1" vertex="1">
          <mxGeometry x="450" y="110" width="160" height="60" as="geometry" />
        </mxCell>
        <mxCell id="8O6h6LcJOBuH67-6-kBQ-9" value="" style="line;strokeWidth=1;fillColor=none;align=left;verticalAlign=middle;spacingTop=-1;spacingLeft=3;spacingRight=3;rotatable=0;labelPosition=right;points=[];portConstraint=eastwest;strokeColor=inherit;" parent="8O6h6LcJOBuH67-6-kBQ-8" vertex="1">
          <mxGeometry y="26" width="160" height="8" as="geometry" />
        </mxCell>
        <mxCell id="8O6h6LcJOBuH67-6-kBQ-10" value="+ f()" style="text;strokeColor=none;fillColor=none;align=left;verticalAlign=top;spacingLeft=4;spacingRight=4;overflow=hidden;rotatable=0;points=[[0,0.5],[1,0.5]];portConstraint=eastwest;" parent="8O6h6LcJOBuH67-6-kBQ-8" vertex="1">
          <mxGeometry y="34" width="160" height="26" as="geometry" />
        </mxCell>
        <mxCell id="8O6h6LcJOBuH67-6-kBQ-11" value="" style="endArrow=block;endSize=16;endFill=0;html=1;rounded=0;exitX=0.544;exitY=0.017;exitDx=0;exitDy=0;exitPerimeter=0;" parent="1" source="8O6h6LcJOBuH67-6-kBQ-5" edge="1">
          <mxGeometry width="160" relative="1" as="geometry">
            <mxPoint x="370" y="240" as="sourcePoint" />
            <mxPoint x="253" y="80" as="targetPoint" />
          </mxGeometry>
        </mxCell>
        <mxCell id="8O6h6LcJOBuH67-6-kBQ-12" value="" style="endArrow=block;endSize=16;endFill=0;html=1;rounded=0;exitX=0.356;exitY=-0.017;exitDx=0;exitDy=0;exitPerimeter=0;entryX=0.631;entryY=1.154;entryDx=0;entryDy=0;entryPerimeter=0;" parent="1" source="8O6h6LcJOBuH67-6-kBQ-8" target="8O6h6LcJOBuH67-6-kBQ-4" edge="1">
          <mxGeometry width="160" relative="1" as="geometry">
            <mxPoint x="450" y="141.01999999999998" as="sourcePoint" />
            <mxPoint x="555.96" y="60" as="targetPoint" />
          </mxGeometry>
        </mxCell>
        <mxCell id="8O6h6LcJOBuH67-6-kBQ-13" value="&lt;font style=&quot;font-size: 14px;&quot;&gt;&lt;b&gt;. . .&lt;/b&gt;&lt;/font&gt;" style="text;html=1;strokeColor=none;fillColor=none;align=center;verticalAlign=middle;whiteSpace=wrap;rounded=0;" parent="1" vertex="1">
          <mxGeometry x="250" y="120" width="60" height="30" as="geometry" />
        </mxCell>
        <mxCell id="8O6h6LcJOBuH67-6-kBQ-14" value="" style="endArrow=block;endSize=16;endFill=0;html=1;rounded=0;entryX=0.406;entryY=1;entryDx=0;entryDy=0;entryPerimeter=0;exitX=0.859;exitY=-0.033;exitDx=0;exitDy=0;exitPerimeter=0;" parent="1" source="8O6h6LcJOBuH67-6-kBQ-15" target="8O6h6LcJOBuH67-6-kBQ-7" edge="1">
          <mxGeometry width="160" relative="1" as="geometry">
            <mxPoint x="60" y="240" as="sourcePoint" />
            <mxPoint x="125.96000000000004" y="210" as="targetPoint" />
          </mxGeometry>
        </mxCell>
        <mxCell id="8O6h6LcJOBuH67-6-kBQ-15" value="ConcreteImpl_1_OfAbstrType_1" style="swimlane;fontStyle=1;align=center;verticalAlign=top;childLayout=stackLayout;horizontal=1;startSize=26;horizontalStack=0;resizeParent=1;resizeParentMax=0;resizeLast=0;collapsible=1;marginBottom=0;" parent="1" vertex="1">
          <mxGeometry x="-220" y="200" width="190" height="60" as="geometry" />
        </mxCell>
        <mxCell id="8O6h6LcJOBuH67-6-kBQ-16" value="" style="line;strokeWidth=1;fillColor=none;align=left;verticalAlign=middle;spacingTop=-1;spacingLeft=3;spacingRight=3;rotatable=0;labelPosition=right;points=[];portConstraint=eastwest;strokeColor=inherit;" parent="8O6h6LcJOBuH67-6-kBQ-15" vertex="1">
          <mxGeometry y="26" width="190" height="8" as="geometry" />
        </mxCell>
        <mxCell id="8O6h6LcJOBuH67-6-kBQ-17" value="+ f()" style="text;strokeColor=none;fillColor=none;align=left;verticalAlign=top;spacingLeft=4;spacingRight=4;overflow=hidden;rotatable=0;points=[[0,0.5],[1,0.5]];portConstraint=eastwest;" parent="8O6h6LcJOBuH67-6-kBQ-15" vertex="1">
          <mxGeometry y="34" width="190" height="26" as="geometry" />
        </mxCell>
        <mxCell id="8O6h6LcJOBuH67-6-kBQ-18" value="ConcreteImpl_k_OfAbstrType_1" style="swimlane;fontStyle=1;align=center;verticalAlign=top;childLayout=stackLayout;horizontal=1;startSize=26;horizontalStack=0;resizeParent=1;resizeParentMax=0;resizeLast=0;collapsible=1;marginBottom=0;" parent="1" vertex="1">
          <mxGeometry x="80" y="200" width="190" height="60" as="geometry" />
        </mxCell>
        <mxCell id="8O6h6LcJOBuH67-6-kBQ-19" value="" style="line;strokeWidth=1;fillColor=none;align=left;verticalAlign=middle;spacingTop=-1;spacingLeft=3;spacingRight=3;rotatable=0;labelPosition=right;points=[];portConstraint=eastwest;strokeColor=inherit;" parent="8O6h6LcJOBuH67-6-kBQ-18" vertex="1">
          <mxGeometry y="26" width="190" height="8" as="geometry" />
        </mxCell>
        <mxCell id="8O6h6LcJOBuH67-6-kBQ-20" value="+ f()" style="text;strokeColor=none;fillColor=none;align=left;verticalAlign=top;spacingLeft=4;spacingRight=4;overflow=hidden;rotatable=0;points=[[0,0.5],[1,0.5]];portConstraint=eastwest;" parent="8O6h6LcJOBuH67-6-kBQ-18" vertex="1">
          <mxGeometry y="34" width="190" height="26" as="geometry" />
        </mxCell>
        <mxCell id="8O6h6LcJOBuH67-6-kBQ-21" value="" style="endArrow=block;endSize=16;endFill=0;html=1;rounded=0;entryX=0.581;entryY=1.154;entryDx=0;entryDy=0;entryPerimeter=0;exitX=0.4;exitY=0;exitDx=0;exitDy=0;exitPerimeter=0;" parent="1" source="8O6h6LcJOBuH67-6-kBQ-18" target="8O6h6LcJOBuH67-6-kBQ-7" edge="1">
          <mxGeometry width="160" relative="1" as="geometry">
            <mxPoint x="220" y="218.01999999999998" as="sourcePoint" />
            <mxPoint x="311.75" y="160" as="targetPoint" />
          </mxGeometry>
        </mxCell>
        <mxCell id="8O6h6LcJOBuH67-6-kBQ-22" value="ConcreteImpl_1_OfAbstrType_n" style="swimlane;fontStyle=1;align=center;verticalAlign=top;childLayout=stackLayout;horizontal=1;startSize=26;horizontalStack=0;resizeParent=1;resizeParentMax=0;resizeLast=0;collapsible=1;marginBottom=0;" parent="1" vertex="1">
          <mxGeometry x="340" y="200" width="190" height="60" as="geometry" />
        </mxCell>
        <mxCell id="8O6h6LcJOBuH67-6-kBQ-23" value="" style="line;strokeWidth=1;fillColor=none;align=left;verticalAlign=middle;spacingTop=-1;spacingLeft=3;spacingRight=3;rotatable=0;labelPosition=right;points=[];portConstraint=eastwest;strokeColor=inherit;" parent="8O6h6LcJOBuH67-6-kBQ-22" vertex="1">
          <mxGeometry y="26" width="190" height="8" as="geometry" />
        </mxCell>
        <mxCell id="8O6h6LcJOBuH67-6-kBQ-24" value="+ f()" style="text;strokeColor=none;fillColor=none;align=left;verticalAlign=top;spacingLeft=4;spacingRight=4;overflow=hidden;rotatable=0;points=[[0,0.5],[1,0.5]];portConstraint=eastwest;" parent="8O6h6LcJOBuH67-6-kBQ-22" vertex="1">
          <mxGeometry y="34" width="190" height="26" as="geometry" />
        </mxCell>
        <mxCell id="8O6h6LcJOBuH67-6-kBQ-25" value="" style="endArrow=block;endSize=16;endFill=0;html=1;rounded=0;entryX=0.3;entryY=1;entryDx=0;entryDy=0;entryPerimeter=0;exitX=0.289;exitY=-0.017;exitDx=0;exitDy=0;exitPerimeter=0;" parent="1" source="8O6h6LcJOBuH67-6-kBQ-22" target="8O6h6LcJOBuH67-6-kBQ-10" edge="1">
          <mxGeometry width="160" relative="1" as="geometry">
            <mxPoint x="-46.789999999999964" y="258.02" as="sourcePoint" />
            <mxPoint x="44.960000000000036" y="200" as="targetPoint" />
          </mxGeometry>
        </mxCell>
        <mxCell id="8O6h6LcJOBuH67-6-kBQ-26" value="ConcreteImpl_k_OfAbstrType_n" style="swimlane;fontStyle=1;align=center;verticalAlign=top;childLayout=stackLayout;horizontal=1;startSize=26;horizontalStack=0;resizeParent=1;resizeParentMax=0;resizeLast=0;collapsible=1;marginBottom=0;" parent="1" vertex="1">
          <mxGeometry x="620" y="200" width="190" height="60" as="geometry" />
        </mxCell>
        <mxCell id="8O6h6LcJOBuH67-6-kBQ-27" value="" style="line;strokeWidth=1;fillColor=none;align=left;verticalAlign=middle;spacingTop=-1;spacingLeft=3;spacingRight=3;rotatable=0;labelPosition=right;points=[];portConstraint=eastwest;strokeColor=inherit;" parent="8O6h6LcJOBuH67-6-kBQ-26" vertex="1">
          <mxGeometry y="26" width="190" height="8" as="geometry" />
        </mxCell>
        <mxCell id="8O6h6LcJOBuH67-6-kBQ-28" value="+ f()" style="text;strokeColor=none;fillColor=none;align=left;verticalAlign=top;spacingLeft=4;spacingRight=4;overflow=hidden;rotatable=0;points=[[0,0.5],[1,0.5]];portConstraint=eastwest;" parent="8O6h6LcJOBuH67-6-kBQ-26" vertex="1">
          <mxGeometry y="34" width="190" height="26" as="geometry" />
        </mxCell>
        <mxCell id="8O6h6LcJOBuH67-6-kBQ-29" value="" style="endArrow=block;endSize=16;endFill=0;html=1;rounded=0;entryX=0.494;entryY=1.115;entryDx=0;entryDy=0;entryPerimeter=0;" parent="1" source="8O6h6LcJOBuH67-6-kBQ-26" target="8O6h6LcJOBuH67-6-kBQ-10" edge="1">
          <mxGeometry width="160" relative="1" as="geometry">
            <mxPoint x="404.90999999999985" y="258.98" as="sourcePoint" />
            <mxPoint x="475.03999999999996" y="204.00400000000002" as="targetPoint" />
          </mxGeometry>
        </mxCell>
        <mxCell id="8O6h6LcJOBuH67-6-kBQ-33" value="&lt;b&gt;After Bridge applying&lt;br&gt;&lt;/b&gt;" style="text;html=1;strokeColor=none;fillColor=none;align=center;verticalAlign=middle;whiteSpace=wrap;rounded=0;fontSize=14;" parent="1" vertex="1">
          <mxGeometry x="-160" y="440" width="270" height="30" as="geometry" />
        </mxCell>
        <mxCell id="8O6h6LcJOBuH67-6-kBQ-34" value="&lt;b&gt;Before Bridge applying&lt;br&gt;&lt;/b&gt;" style="text;html=1;strokeColor=none;fillColor=none;align=center;verticalAlign=middle;whiteSpace=wrap;rounded=0;fontSize=14;" parent="1" vertex="1">
          <mxGeometry x="-160" y="35" width="260" height="30" as="geometry" />
        </mxCell>
        <mxCell id="8O6h6LcJOBuH67-6-kBQ-35" value="Abstraction" style="swimlane;fontStyle=1;align=center;verticalAlign=top;childLayout=stackLayout;horizontal=1;startSize=26;horizontalStack=0;resizeParent=1;resizeParentMax=0;resizeLast=0;collapsible=1;marginBottom=0;" parent="1" vertex="1">
          <mxGeometry x="-80" y="490" width="160" height="60" as="geometry" />
        </mxCell>
        <mxCell id="8O6h6LcJOBuH67-6-kBQ-36" value="" style="line;strokeWidth=1;fillColor=none;align=left;verticalAlign=middle;spacingTop=-1;spacingLeft=3;spacingRight=3;rotatable=0;labelPosition=right;points=[];portConstraint=eastwest;strokeColor=inherit;" parent="8O6h6LcJOBuH67-6-kBQ-35" vertex="1">
          <mxGeometry y="26" width="160" height="8" as="geometry" />
        </mxCell>
        <mxCell id="8O6h6LcJOBuH67-6-kBQ-37" value="+ abstract f()" style="text;strokeColor=none;fillColor=none;align=left;verticalAlign=top;spacingLeft=4;spacingRight=4;overflow=hidden;rotatable=0;points=[[0,0.5],[1,0.5]];portConstraint=eastwest;" parent="8O6h6LcJOBuH67-6-kBQ-35" vertex="1">
          <mxGeometry y="34" width="160" height="26" as="geometry" />
        </mxCell>
        <mxCell id="8O6h6LcJOBuH67-6-kBQ-38" value="AbstrType_1" style="swimlane;fontStyle=1;align=center;verticalAlign=top;childLayout=stackLayout;horizontal=1;startSize=26;horizontalStack=0;resizeParent=1;resizeParentMax=0;resizeLast=0;collapsible=1;marginBottom=0;" parent="1" vertex="1">
          <mxGeometry x="-290" y="580" width="160" height="60" as="geometry" />
        </mxCell>
        <mxCell id="8O6h6LcJOBuH67-6-kBQ-39" value="" style="line;strokeWidth=1;fillColor=none;align=left;verticalAlign=middle;spacingTop=-1;spacingLeft=3;spacingRight=3;rotatable=0;labelPosition=right;points=[];portConstraint=eastwest;strokeColor=inherit;" parent="8O6h6LcJOBuH67-6-kBQ-38" vertex="1">
          <mxGeometry y="26" width="160" height="8" as="geometry" />
        </mxCell>
        <mxCell id="8O6h6LcJOBuH67-6-kBQ-40" value="+ f()" style="text;strokeColor=none;fillColor=none;align=left;verticalAlign=top;spacingLeft=4;spacingRight=4;overflow=hidden;rotatable=0;points=[[0,0.5],[1,0.5]];portConstraint=eastwest;" parent="8O6h6LcJOBuH67-6-kBQ-38" vertex="1">
          <mxGeometry y="34" width="160" height="26" as="geometry" />
        </mxCell>
        <mxCell id="8O6h6LcJOBuH67-6-kBQ-41" value="AbstrType_n" style="swimlane;fontStyle=1;align=center;verticalAlign=top;childLayout=stackLayout;horizontal=1;startSize=26;horizontalStack=0;resizeParent=1;resizeParentMax=0;resizeLast=0;collapsible=1;marginBottom=0;" parent="1" vertex="1">
          <mxGeometry x="180" y="580" width="160" height="60" as="geometry" />
        </mxCell>
        <mxCell id="8O6h6LcJOBuH67-6-kBQ-42" value="" style="line;strokeWidth=1;fillColor=none;align=left;verticalAlign=middle;spacingTop=-1;spacingLeft=3;spacingRight=3;rotatable=0;labelPosition=right;points=[];portConstraint=eastwest;strokeColor=inherit;" parent="8O6h6LcJOBuH67-6-kBQ-41" vertex="1">
          <mxGeometry y="26" width="160" height="8" as="geometry" />
        </mxCell>
        <mxCell id="8O6h6LcJOBuH67-6-kBQ-43" value="+ f()" style="text;strokeColor=none;fillColor=none;align=left;verticalAlign=top;spacingLeft=4;spacingRight=4;overflow=hidden;rotatable=0;points=[[0,0.5],[1,0.5]];portConstraint=eastwest;" parent="8O6h6LcJOBuH67-6-kBQ-41" vertex="1">
          <mxGeometry y="34" width="160" height="26" as="geometry" />
        </mxCell>
        <mxCell id="8O6h6LcJOBuH67-6-kBQ-44" value="" style="endArrow=block;endSize=16;endFill=0;html=1;rounded=0;exitX=0.544;exitY=0.017;exitDx=0;exitDy=0;exitPerimeter=0;" parent="1" source="8O6h6LcJOBuH67-6-kBQ-38" edge="1">
          <mxGeometry width="160" relative="1" as="geometry">
            <mxPoint x="100" y="710" as="sourcePoint" />
            <mxPoint x="-17" y="550" as="targetPoint" />
          </mxGeometry>
        </mxCell>
        <mxCell id="8O6h6LcJOBuH67-6-kBQ-45" value="" style="endArrow=block;endSize=16;endFill=0;html=1;rounded=0;exitX=0.356;exitY=-0.017;exitDx=0;exitDy=0;exitPerimeter=0;entryX=0.631;entryY=1.154;entryDx=0;entryDy=0;entryPerimeter=0;" parent="1" source="8O6h6LcJOBuH67-6-kBQ-41" target="8O6h6LcJOBuH67-6-kBQ-37" edge="1">
          <mxGeometry width="160" relative="1" as="geometry">
            <mxPoint x="180" y="611.02" as="sourcePoint" />
            <mxPoint x="285.96000000000004" y="530" as="targetPoint" />
          </mxGeometry>
        </mxCell>
        <mxCell id="8O6h6LcJOBuH67-6-kBQ-46" value="" style="endArrow=none;dashed=1;html=1;rounded=0;fontSize=14;" parent="1" edge="1">
          <mxGeometry width="50" height="50" relative="1" as="geometry">
            <mxPoint x="-320" y="420" as="sourcePoint" />
            <mxPoint x="810" y="420" as="targetPoint" />
          </mxGeometry>
        </mxCell>
        <mxCell id="8O6h6LcJOBuH67-6-kBQ-47" value="Implementation" style="swimlane;fontStyle=1;align=center;verticalAlign=top;childLayout=stackLayout;horizontal=1;startSize=26;horizontalStack=0;resizeParent=1;resizeParentMax=0;resizeLast=0;collapsible=1;marginBottom=0;" parent="1" vertex="1">
          <mxGeometry x="520" y="480" width="160" height="60" as="geometry" />
        </mxCell>
        <mxCell id="8O6h6LcJOBuH67-6-kBQ-48" value="" style="line;strokeWidth=1;fillColor=none;align=left;verticalAlign=middle;spacingTop=-1;spacingLeft=3;spacingRight=3;rotatable=0;labelPosition=right;points=[];portConstraint=eastwest;strokeColor=inherit;" parent="8O6h6LcJOBuH67-6-kBQ-47" vertex="1">
          <mxGeometry y="26" width="160" height="8" as="geometry" />
        </mxCell>
        <mxCell id="8O6h6LcJOBuH67-6-kBQ-49" value="+ abstract g()" style="text;strokeColor=none;fillColor=none;align=left;verticalAlign=top;spacingLeft=4;spacingRight=4;overflow=hidden;rotatable=0;points=[[0,0.5],[1,0.5]];portConstraint=eastwest;" parent="8O6h6LcJOBuH67-6-kBQ-47" vertex="1">
          <mxGeometry y="34" width="160" height="26" as="geometry" />
        </mxCell>
        <mxCell id="8O6h6LcJOBuH67-6-kBQ-50" value="" style="endArrow=diamondThin;endFill=0;endSize=24;html=1;rounded=0;fontSize=14;entryX=1;entryY=0.25;entryDx=0;entryDy=0;exitX=0;exitY=0.5;exitDx=0;exitDy=0;" parent="1" source="8O6h6LcJOBuH67-6-kBQ-47" target="8O6h6LcJOBuH67-6-kBQ-35" edge="1">
          <mxGeometry width="160" relative="1" as="geometry">
            <mxPoint x="310" y="509.40999999999997" as="sourcePoint" />
            <mxPoint x="470" y="509.40999999999997" as="targetPoint" />
          </mxGeometry>
        </mxCell>
        <mxCell id="8O6h6LcJOBuH67-6-kBQ-51" value="ConcreteImpl_1" style="swimlane;fontStyle=1;align=center;verticalAlign=top;childLayout=stackLayout;horizontal=1;startSize=26;horizontalStack=0;resizeParent=1;resizeParentMax=0;resizeLast=0;collapsible=1;marginBottom=0;" parent="1" vertex="1">
          <mxGeometry x="400" y="580" width="140" height="60" as="geometry" />
        </mxCell>
        <mxCell id="8O6h6LcJOBuH67-6-kBQ-52" value="" style="line;strokeWidth=1;fillColor=none;align=left;verticalAlign=middle;spacingTop=-1;spacingLeft=3;spacingRight=3;rotatable=0;labelPosition=right;points=[];portConstraint=eastwest;strokeColor=inherit;" parent="8O6h6LcJOBuH67-6-kBQ-51" vertex="1">
          <mxGeometry y="26" width="140" height="8" as="geometry" />
        </mxCell>
        <mxCell id="8O6h6LcJOBuH67-6-kBQ-53" value="+ g()" style="text;strokeColor=none;fillColor=none;align=left;verticalAlign=top;spacingLeft=4;spacingRight=4;overflow=hidden;rotatable=0;points=[[0,0.5],[1,0.5]];portConstraint=eastwest;" parent="8O6h6LcJOBuH67-6-kBQ-51" vertex="1">
          <mxGeometry y="34" width="140" height="26" as="geometry" />
        </mxCell>
        <mxCell id="8O6h6LcJOBuH67-6-kBQ-60" value="&lt;font style=&quot;font-size: 14px;&quot;&gt;&lt;b&gt;. . .&lt;/b&gt;&lt;/font&gt;" style="text;html=1;strokeColor=none;fillColor=none;align=center;verticalAlign=middle;whiteSpace=wrap;rounded=0;" parent="1" vertex="1">
          <mxGeometry x="-10" y="230" width="60" height="30" as="geometry" />
        </mxCell>
        <mxCell id="8O6h6LcJOBuH67-6-kBQ-61" value="&lt;font style=&quot;font-size: 14px;&quot;&gt;&lt;b&gt;. . .&lt;/b&gt;&lt;/font&gt;" style="text;html=1;strokeColor=none;fillColor=none;align=center;verticalAlign=middle;whiteSpace=wrap;rounded=0;" parent="1" vertex="1">
          <mxGeometry x="540" y="230" width="60" height="30" as="geometry" />
        </mxCell>
        <mxCell id="8O6h6LcJOBuH67-6-kBQ-62" value="&lt;font style=&quot;font-size: 14px;&quot;&gt;&lt;b&gt;. . .&lt;/b&gt;&lt;/font&gt;" style="text;html=1;strokeColor=none;fillColor=none;align=center;verticalAlign=middle;whiteSpace=wrap;rounded=0;" parent="1" vertex="1">
          <mxGeometry x="-30" y="610" width="60" height="30" as="geometry" />
        </mxCell>
        <mxCell id="8O6h6LcJOBuH67-6-kBQ-63" value="ConcreteImpl_k" style="swimlane;fontStyle=1;align=center;verticalAlign=top;childLayout=stackLayout;horizontal=1;startSize=26;horizontalStack=0;resizeParent=1;resizeParentMax=0;resizeLast=0;collapsible=1;marginBottom=0;" parent="1" vertex="1">
          <mxGeometry x="670" y="580" width="140" height="60" as="geometry" />
        </mxCell>
        <mxCell id="8O6h6LcJOBuH67-6-kBQ-64" value="" style="line;strokeWidth=1;fillColor=none;align=left;verticalAlign=middle;spacingTop=-1;spacingLeft=3;spacingRight=3;rotatable=0;labelPosition=right;points=[];portConstraint=eastwest;strokeColor=inherit;" parent="8O6h6LcJOBuH67-6-kBQ-63" vertex="1">
          <mxGeometry y="26" width="140" height="8" as="geometry" />
        </mxCell>
        <mxCell id="8O6h6LcJOBuH67-6-kBQ-65" value="+ g()" style="text;strokeColor=none;fillColor=none;align=left;verticalAlign=top;spacingLeft=4;spacingRight=4;overflow=hidden;rotatable=0;points=[[0,0.5],[1,0.5]];portConstraint=eastwest;" parent="8O6h6LcJOBuH67-6-kBQ-63" vertex="1">
          <mxGeometry y="34" width="140" height="26" as="geometry" />
        </mxCell>
        <mxCell id="8O6h6LcJOBuH67-6-kBQ-66" value="" style="endArrow=block;endSize=16;endFill=0;html=1;rounded=0;exitX=0.5;exitY=0;exitDx=0;exitDy=0;entryX=0.357;entryY=1.02;entryDx=0;entryDy=0;entryPerimeter=0;" parent="1" source="8O6h6LcJOBuH67-6-kBQ-51" target="8O6h6LcJOBuH67-6-kBQ-49" edge="1">
          <mxGeometry width="160" relative="1" as="geometry">
            <mxPoint x="-192.96000000000004" y="591.02" as="sourcePoint" />
            <mxPoint x="-7" y="560" as="targetPoint" />
          </mxGeometry>
        </mxCell>
        <mxCell id="8O6h6LcJOBuH67-6-kBQ-67" value="" style="endArrow=block;endSize=16;endFill=0;html=1;rounded=0;exitX=0.32;exitY=-0.05;exitDx=0;exitDy=0;exitPerimeter=0;entryX=0.549;entryY=1.156;entryDx=0;entryDy=0;entryPerimeter=0;" parent="1" source="8O6h6LcJOBuH67-6-kBQ-63" target="8O6h6LcJOBuH67-6-kBQ-49" edge="1">
          <mxGeometry width="160" relative="1" as="geometry">
            <mxPoint x="-182.96000000000004" y="601.02" as="sourcePoint" />
            <mxPoint x="3" y="570" as="targetPoint" />
          </mxGeometry>
        </mxCell>
        <mxCell id="8O6h6LcJOBuH67-6-kBQ-68" value="&lt;font style=&quot;font-size: 14px;&quot;&gt;&lt;b&gt;. . .&lt;/b&gt;&lt;/font&gt;" style="text;html=1;strokeColor=none;fillColor=none;align=center;verticalAlign=middle;whiteSpace=wrap;rounded=0;" parent="1" vertex="1">
          <mxGeometry x="560" y="600" width="60" height="30" as="geometry" />
        </mxCell>
      </root>
    </mxGraphModel>
  </diagram>
</mxfile>
